<svg width="186" height="32" viewBox="0 0 186 32" fill="none" xmlns="http://www.w3.org/2000/svg">
<g filter="url(#filter0_b_2008_3009)">
<rect width="32" height="32" rx="16" fill="#DAC5A7" fill-opacity="0.05"/>
<rect x="0.5" y="0.5" width="31" height="31" rx="15.5" stroke="#DAC5A7" stroke-opacity="0.15"/>
<path d="M20.9219 11.5V18.8125C20.9219 18.9244 20.8774 19.0317 20.7983 19.1108C20.7192 19.1899 20.6119 19.2344 20.5 19.2344C20.3881 19.2344 20.2808 19.1899 20.2017 19.1108C20.1226 19.0317 20.0781 18.9244 20.0781 18.8125V12.5195L11.7953 20.7953C11.717 20.8736 11.6108 20.9176 11.5 20.9176C11.3892 20.9176 11.283 20.8736 11.2047 20.7953C11.1264 20.717 11.0824 20.6108 11.0824 20.5C11.0824 20.3892 11.1264 20.283 11.2047 20.2047L19.4805 11.9219H13.1875C13.0756 11.9219 12.9683 11.8774 12.8892 11.7983C12.8101 11.7192 12.7656 11.6119 12.7656 11.5C12.7656 11.3881 12.8101 11.2808 12.8892 11.2017C12.9683 11.1226 13.0756 11.0781 13.1875 11.0781H20.5C20.6119 11.0781 20.7192 11.1226 20.7983 11.2017C20.8774 11.2808 20.9219 11.3881 20.9219 11.5Z" fill="#DAC5A7"/>
</g>
<path d="M45.131 21.5L46.041 19.03H50.331L51.241 21.5H52.216L48.758 12.192H47.601L44.182 21.5H45.131ZM48.056 13.505C48.108 13.375 48.16 13.206 48.173 13.128C48.186 13.219 48.251 13.375 48.29 13.505L50.032 18.211H46.327L48.056 13.505ZM55.0099 21.5H58.6109C60.3789 21.5 61.4969 20.551 61.4969 19.056C61.4969 17.912 60.9509 17.158 59.8719 16.807C60.8339 16.43 61.3149 15.689 61.3149 14.597C61.3149 13.102 60.2099 12.192 58.4159 12.192H55.0099V21.5ZM58.4029 13.024C59.6509 13.024 60.3529 13.635 60.3529 14.675C60.3529 15.78 59.6899 16.43 58.5199 16.43H55.9459V13.024H58.4029ZM58.6109 17.249C59.8199 17.249 60.5479 17.886 60.5479 18.939C60.5479 20.018 59.8329 20.655 58.6109 20.655H55.9459V17.249H58.6109ZM72.9797 16.846C72.9797 14.012 71.1597 12.023 68.5467 12.023C65.9467 12.023 64.1137 14.025 64.1137 16.846C64.1137 19.667 65.9337 21.656 68.5467 21.656C71.1467 21.656 72.9797 19.667 72.9797 16.846ZM72.0177 16.846C72.0177 19.16 70.6007 20.759 68.5467 20.759C66.4927 20.759 65.0887 19.173 65.0887 16.846C65.0887 14.519 66.4927 12.933 68.5467 12.933C70.6007 12.933 72.0177 14.519 72.0177 16.846ZM76.1119 18.263C76.1119 20.382 77.4119 21.656 79.5699 21.656C81.6889 21.656 82.9889 20.369 82.9889 18.263V12.192H82.0529V18.224C82.0529 19.836 81.1559 20.746 79.5699 20.746C77.9449 20.746 77.0479 19.862 77.0479 18.224V12.192H76.1119V18.263ZM85.7156 13.05H88.5756V21.5H89.5116V13.05H92.3846V12.192H85.7156V13.05ZM102.111 21.5H103.008L105.504 13.596L108 21.5H108.884L111.679 12.192H110.73L108.806 18.601C108.702 18.952 108.585 19.407 108.442 20.122C108.299 19.524 108.169 19.056 108.026 18.588L105.998 12.192H105.023L102.995 18.588C102.852 19.043 102.722 19.446 102.566 20.122C102.449 19.511 102.332 19.043 102.202 18.588L100.317 12.192H99.3425L102.111 21.5ZM120.076 21.5V20.642H115.435V17.249H119.634V16.404H115.435V13.05H120.063V12.192H114.499V21.5H120.076ZM123.477 21.5H127.078C128.846 21.5 129.964 20.551 129.964 19.056C129.964 17.912 129.418 17.158 128.339 16.807C129.301 16.43 129.782 15.689 129.782 14.597C129.782 13.102 128.677 12.192 126.883 12.192H123.477V21.5ZM126.87 13.024C128.118 13.024 128.82 13.635 128.82 14.675C128.82 15.78 128.157 16.43 126.987 16.43H124.413V13.024H126.87ZM127.078 17.249C128.287 17.249 129.015 17.886 129.015 18.939C129.015 20.018 128.3 20.655 127.078 20.655H124.413V17.249H127.078ZM135.986 21.5C138.781 21.5 140.64 19.628 140.64 16.846C140.64 14.064 138.768 12.192 135.96 12.192H133.152V21.5H135.986ZM135.921 13.05C138.222 13.05 139.678 14.519 139.678 16.846C139.678 19.16 138.222 20.642 135.947 20.642H134.088V13.05H135.921ZM149.408 21.5V20.642H144.767V17.249H148.966V16.404H144.767V13.05H149.395V12.192H143.831V21.5H149.408ZM152.25 14.61C152.25 15.884 153.017 16.716 154.473 17.067L156.046 17.457C157.047 17.691 157.515 18.237 157.515 19.069C157.515 20.135 156.644 20.798 155.279 20.798C154.005 20.798 153.147 20.161 153.095 19.186H152.133C152.25 20.707 153.472 21.656 155.279 21.656C157.203 21.656 158.451 20.629 158.451 19.017C158.451 17.756 157.697 16.924 156.241 16.573L154.642 16.183C153.667 15.936 153.186 15.416 153.186 14.597C153.186 13.544 154.044 12.868 155.357 12.868C156.527 12.868 157.242 13.466 157.346 14.519H158.295C158.152 12.959 157.047 12.023 155.37 12.023C153.498 12.023 152.25 13.05 152.25 14.61ZM162.57 12.192H161.634V21.5H162.57V12.192ZM170.233 12.92C171.598 12.92 172.69 13.57 173.08 14.844H174.094C173.73 13.154 172.209 12.036 170.246 12.036C167.581 12.036 165.761 14.038 165.761 16.885C165.761 19.758 167.581 21.656 170.22 21.656C171.728 21.656 172.898 20.954 173.392 20.031L173.483 21.513H174.224V16.469H169.973V17.301H173.34V17.782C173.34 20.018 171.819 20.772 170.259 20.772C168.166 20.772 166.736 19.303 166.736 16.885C166.736 14.506 168.088 12.92 170.233 12.92ZM178.519 21.5V13.752L183.654 21.5H184.577V12.192H183.654V19.94L178.532 12.192H177.583V21.5H178.519Z" fill="#DAC5A7"/>
<defs>
<filter id="filter0_b_2008_3009" x="-30" y="-30" width="92" height="92" filterUnits="userSpaceOnUse" color-interpolation-filters="sRGB">
<feFlood flood-opacity="0" result="BackgroundImageFix"/>
<feGaussianBlur in="BackgroundImageFix" stdDeviation="15"/>
<feComposite in2="SourceAlpha" operator="in" result="effect1_backgroundBlur_2008_3009"/>
<feBlend mode="normal" in="SourceGraphic" in2="effect1_backgroundBlur_2008_3009" result="shape"/>
</filter>
</defs>
</svg>
