<svg width="101" height="32" viewBox="0 0 101 32" fill="none" xmlns="http://www.w3.org/2000/svg">
<g filter="url(#filter0_b_2265_3583)">
<rect width="32" height="32" rx="16" fill="#DAC5A7" fill-opacity="0.05"/>
<rect x="0.5" y="0.5" width="31" height="31" rx="15.5" stroke="#DAC5A7" stroke-opacity="0.15"/>
<path d="M20.9219 11.5V18.8125C20.9219 18.9244 20.8775 19.0317 20.7983 19.1108C20.7192 19.1899 20.6119 19.2344 20.5 19.2344C20.3881 19.2344 20.2808 19.1899 20.2017 19.1108C20.1226 19.0317 20.0782 18.9244 20.0782 18.8125V12.5195L11.7953 20.7953C11.717 20.8736 11.6108 20.9176 11.5 20.9176C11.3893 20.9176 11.283 20.8736 11.2047 20.7953C11.1264 20.717 11.0824 20.6108 11.0824 20.5C11.0824 20.3892 11.1264 20.283 11.2047 20.2047L19.4805 11.9219H13.1875C13.0756 11.9219 12.9683 11.8774 12.8892 11.7983C12.8101 11.7192 12.7657 11.6119 12.7657 11.5C12.7657 11.3881 12.8101 11.2808 12.8892 11.2017C12.9683 11.1226 13.0756 11.0781 13.1875 11.0781H20.5C20.6119 11.0781 20.7192 11.1226 20.7983 11.2017C20.8775 11.2808 20.9219 11.3881 20.9219 11.5Z" fill="#DAC5A7"/>
</g>
<path d="M44.572 14.61C44.572 15.884 45.339 16.716 46.795 17.067L48.368 17.457C49.369 17.691 49.837 18.237 49.837 19.069C49.837 20.135 48.966 20.798 47.601 20.798C46.327 20.798 45.469 20.161 45.417 19.186H44.455C44.572 20.707 45.794 21.656 47.601 21.656C49.525 21.656 50.773 20.629 50.773 19.017C50.773 17.756 50.019 16.924 48.563 16.573L46.964 16.183C45.989 15.936 45.508 15.416 45.508 14.597C45.508 13.544 46.366 12.868 47.679 12.868C48.849 12.868 49.564 13.466 49.668 14.519H50.617C50.474 12.959 49.369 12.023 47.692 12.023C45.82 12.023 44.572 13.05 44.572 14.61ZM59.5332 21.5V20.642H54.8922V17.249H59.0912V16.404H54.8922V13.05H59.5202V12.192H53.9562V21.5H59.5332ZM68.5107 21.5V20.642H63.8697V17.249H68.0687V16.404H63.8697V13.05H68.4977V12.192H62.9337V21.5H68.5107ZM77.0167 21.5L77.9267 19.03H82.2167L83.1267 21.5H84.1017L80.6437 12.192H79.4867L76.0677 21.5H77.0167ZM79.9417 13.505C79.9937 13.375 80.0457 13.206 80.0587 13.128C80.0717 13.219 80.1367 13.375 80.1757 13.505L81.9177 18.211H78.2127L79.9417 13.505ZM87.8316 12.192H86.8956V21.5H92.1086V20.642H87.8316V12.192ZM95.9459 12.192H95.0099V21.5H100.223V20.642H95.9459V12.192Z" fill="#DAC5A7"/>
<defs>
<filter id="filter0_b_2265_3583" x="-30" y="-30" width="92" height="92" filterUnits="userSpaceOnUse" color-interpolation-filters="sRGB">
<feFlood flood-opacity="0" result="BackgroundImageFix"/>
<feGaussianBlur in="BackgroundImageFix" stdDeviation="15"/>
<feComposite in2="SourceAlpha" operator="in" result="effect1_backgroundBlur_2265_3583"/>
<feBlend mode="normal" in="SourceGraphic" in2="effect1_backgroundBlur_2265_3583" result="shape"/>
</filter>
</defs>
</svg>
